<svg width="290" height="399" viewBox="0 0 290 399" fill="none" xmlns="http://www.w3.org/2000/svg">
<path d="M192.973 34.0672C202.799 29.2455 214.584 30.4384 225.797 36.544C237.006 42.6477 247.516 53.6094 254.584 68.0228C261.652 82.436 263.884 97.4591 261.848 110.062C259.812 122.67 253.541 132.723 243.715 137.544C233.889 142.366 222.105 141.173 210.892 135.067C199.683 128.964 189.173 118.003 182.105 103.589C175.037 89.176 172.805 74.1523 174.841 61.549C176.877 48.9418 183.147 38.8891 192.973 34.0672Z" fill="#673211" stroke="black" stroke-width="3"/>
<path d="M205.28 88.9713C204.645 88.8107 204.002 88.6703 203.373 88.4887C202.777 88.3164 201.316 87.8783 201.03 87.3975" stroke="black" stroke-linecap="round"/>
<path d="M205.724 83.9364C204.595 83.6507 203.48 83.3514 202.402 82.9204C202.057 82.7824 201.727 82.5224 201.407 82.3363C201.204 82.2186 201.452 82.0248 201.085 81.9319" stroke="black" stroke-linecap="round"/>
<path d="M205.346 79.5237C203.152 78.9684 201.303 78.1815 199.342 77.0078" stroke="black" stroke-linecap="round"/>
<path d="M206.412 75.3097C205.188 74.9997 204.322 74.097 203.192 73.6737C202.54 73.429 202.507 73.036 202.127 72.5644" stroke="black" stroke-linecap="round"/>
<path d="M198.92 74.7416C197.681 74.1985 196.688 72.949 195.57 72.2332" stroke="black" stroke-linecap="round"/>
<path d="M197.5 79.6963C196.333 79.401 194.223 78.421 193.604 77.3816" stroke="black" stroke-linecap="round"/>
<path d="M198.733 85.3213C197.785 85.0812 197.082 84.5436 196.219 84.1038C195.899 83.9405 195.46 83.903 195.186 83.667C194.905 83.4243 194.865 83.2499 194.485 83.0837" stroke="black" stroke-linecap="round"/>
<path d="M232.37 105.641C233.229 116.786 247.9 125.297 256.217 125.878C208.115 185.072 127.236 40.0563 210.134 32.2268C205.413 40.7415 203.859 60.1437 210.531 71.5475C210.909 72.066 211.267 72.6193 211.603 73.2084C211.224 72.6767 210.867 72.1222 210.531 71.5475C198.486 55.0295 166.347 73.8004 203.718 97.4321C194.076 112.686 233.066 142.855 232.37 105.641C232.339 105.227 232.326 104.809 232.333 104.388C232.35 104.814 232.363 105.232 232.37 105.641Z" fill="#9D6D42"/>
<path d="M256.217 125.878C247.59 125.275 232.13 116.142 232.333 104.388C233.93 143.521 193.97 112.854 203.718 97.4321C165.174 73.0586 200.572 53.8558 211.603 73.2084C203.71 62.1271 205.175 41.1707 210.134 32.2268C127.236 40.0563 208.115 185.072 256.217 125.878Z" stroke="black" stroke-width="3"/>
<ellipse cx="8.09796" cy="6.61177" rx="8.09796" ry="6.61177" transform="matrix(0.90907 -0.416644 0.416402 0.909181 233.973 98.6541)" fill="black"/>
<ellipse cx="245.227" cy="97.2378" rx="3.08837" ry="3.08935" transform="rotate(4 245.227 97.2378)" fill="white"/>
<ellipse cx="1.85321" cy="1.23562" rx="1.85321" ry="1.23562" transform="matrix(0.862624 -0.505846 0.505591 0.862773 238.26 99.4686)" fill="white"/>
<path d="M213.595 80.161C218.826 76.1911 233.639 94.5695 227.09 99.686C224.47 101.733 213.62 97.5053 211.901 95.527C210.564 93.9888 209.639 83.6006 213.595 80.161Z" fill="#332424" stroke="black" stroke-width="3"/>
<ellipse cx="8.09796" cy="6.61177" rx="8.09796" ry="6.61177" transform="matrix(0.90907 -0.416644 0.416402 0.909181 214.466 67.5598)" fill="black"/>
<ellipse cx="225.72" cy="66.1436" rx="3.08837" ry="3.08935" transform="rotate(4 225.72 66.1436)" fill="white"/>
<ellipse cx="1.85321" cy="1.23562" rx="1.85321" ry="1.23562" transform="matrix(0.862624 -0.505846 0.505591 0.862773 218.753 68.3744)" fill="white"/>
<path d="M212.104 102.73C212.059 103.383 211.991 104.039 211.967 104.693C211.944 105.313 211.904 106.838 212.272 107.26" stroke="black" stroke-linecap="round"/>
<path d="M217.024 103.881C216.943 105.043 216.879 106.196 216.952 107.355C216.975 107.726 217.119 108.121 217.196 108.483C217.244 108.712 217.505 108.538 217.479 108.916" stroke="black" stroke-linecap="round"/>
<path d="M221.097 105.618C220.939 107.876 221.108 109.879 221.611 112.109" stroke="black" stroke-linecap="round"/>
<path d="M225.432 105.921C225.343 107.182 225.93 108.286 225.98 109.492C226.008 110.189 226.371 110.342 226.7 110.851" stroke="black" stroke-linecap="round"/>
<path d="M223.631 113.219C223.76 114.566 224.636 115.9 224.967 117.185" stroke="black" stroke-linecap="round"/>
<path d="M218.482 113.02C218.398 114.221 218.67 116.532 219.464 117.446" stroke="black" stroke-linecap="round"/>
<path d="M213.525 110.091C213.457 111.067 213.748 111.903 213.896 112.861C213.951 113.216 213.85 113.645 213.988 113.979C214.131 114.322 214.284 114.415 214.323 114.827" stroke="black" stroke-linecap="round"/>
<path d="M237.861 75.8074C237.89 75.3952 238.408 75.1569 238.581 74.7372C238.77 74.2794 239.339 73.979 239.638 73.5918C240.262 72.7844 240.692 72.2447 240.767 71.1695" stroke="black" stroke-linecap="round"/>
<path d="M236.866 69.283C236.94 68.8795 237.439 68.6112 237.67 68.2993C237.942 67.9314 238.19 67.7049 238.421 67.2939C238.817 66.5908 239.42 66.031 239.727 65.2874" stroke="black" stroke-linecap="round"/>
<path d="M236.789 63.4682C237.994 62.4207 239.078 60.7308 239.19 59.1177" stroke="black" stroke-linecap="round"/>
<path d="M241.43 61.6948C241.528 60.9211 242.004 59.8875 242.486 59.2854C243.139 58.4696 243.357 57.2167 243.429 56.1866" stroke="black" stroke-linecap="round"/>
<path d="M243.468 67.1625C243.618 66.286 244.605 65.4009 244.933 64.5307C245.158 63.9349 245.183 63.4002 245.227 62.7672" stroke="black" stroke-linecap="round"/>
<path d="M241.299 80.5752C241.621 80.8351 242.148 80.6184 242.573 80.7778C243.037 80.9515 243.644 80.7399 244.131 80.785C245.147 80.879 245.835 80.9326 246.672 81.6105" stroke="black" stroke-linecap="round"/>
<path d="M245.394 85.7509C245.739 85.9722 246.276 85.7894 246.661 85.8334C247.115 85.8852 247.45 85.8577 247.908 85.9688C248.692 86.1589 249.513 86.099 250.266 86.3813" stroke="black" stroke-linecap="round"/>
<path d="M249.594 89.7712C251.181 89.6037 253.156 89.9624 254.412 90.9795" stroke="black" stroke-linecap="round"/>
<path d="M254.054 87.5834C254.686 88.0395 255.767 88.3957 256.536 88.4533C257.578 88.5313 258.642 89.2263 259.445 89.8758" stroke="black" stroke-linecap="round"/>
<path d="M251.444 82.3649C252.188 82.8526 253.508 82.7338 254.368 83.0864C254.957 83.3278 255.365 83.6746 255.858 84.0737" stroke="black" stroke-linecap="round"/>
<path d="M198.977 41.2982C195.116 41.0282 191.365 41.8652 189.799 45.659" stroke="black" stroke-width="2" stroke-linecap="round"/>
<path d="M242.157 127.424C241.529 127.969 240.744 128.518 240.042 128.961C239.311 129.423 238.624 129.379 237.817 129.505C236.258 129.748 234.9 129.821 233.286 129.708" stroke="black" stroke-width="2" stroke-linecap="round"/>
<path d="M191.656 99.8481C191.577 100.985 191.533 102.045 192.249 103.027C193.09 104.181 194.021 104.212 195.183 104.775" stroke="black" stroke-width="2" stroke-linecap="round"/>
<path d="M186.967 100.004C186.897 101.001 187.359 102.058 187.822 102.897C188.374 103.897 188.891 104.949 189.493 105.919C190.174 107.017 191.006 107.733 191.919 108.643C192.197 108.92 193.049 109.951 193.368 109.973" stroke="black" stroke-width="2" stroke-linecap="round"/>
<path d="M274.02 123.694C275.164 114.644 266.763 114.721 261.235 116.088C259.873 121.189 254.971 128.063 252.196 130.89C253.131 133.833 259.381 139.964 265.41 135.766C272.947 130.518 273.549 127.423 274.02 123.694Z" fill="#673211" stroke="black" stroke-width="3"/>
<path d="M260.667 120.676C261.014 120.631 261.24 120.322 261.603 120.278C261.988 120.232 262.382 120.306 262.767 120.322C263.659 120.361 264.535 120.279 265.434 120.342C266.834 120.44 267.913 120.548 269.131 121.268" stroke="black" stroke-width="2" stroke-linecap="round"/>
<path d="M261.284 121.386C261.72 121.505 262.301 122.079 262.72 122.321C263.529 122.787 264.306 122.98 265.042 123.558C265.654 124.039 266.871 124.964 266.814 125.776" stroke="black" stroke-width="2" stroke-linecap="round"/>
<path d="M260.196 122.645C260.224 123.971 261.751 124.538 262.117 125.652C262.362 126.4 262.205 127.286 262.492 127.977" stroke="black" stroke-width="2" stroke-linecap="round"/>
<path d="M222.175 19.4425C229.883 24.317 224.479 30.7522 219.907 34.1489C215.107 31.9552 206.686 31.3663 202.741 31.7098C201.065 29.1151 200.313 20.3913 207.387 18.4085C216.228 15.9298 218.998 17.434 222.175 19.4425Z" fill="#673211" stroke="black" stroke-width="3"/>
<path d="M215.44 32.9386C216.543 31.3382 217.534 29.6562 217.798 27.7006C217.965 26.465 217.982 25.1926 218.07 23.9477" stroke="black" stroke-width="2" stroke-linecap="round"/>
<path d="M215.722 31.2902C215.771 30.59 215.754 29.9016 215.626 29.2076C215.491 28.4725 215.472 27.4355 215.205 26.7501C214.873 25.897 214.669 24.9698 214.218 24.1788" stroke="black" stroke-width="2" stroke-linecap="round"/>
<path d="M214.361 31.6953C213.698 30.9334 213.374 30.0026 212.95 29.0851C212.513 28.1408 211.547 27.6918 210.668 27.2667" stroke="black" stroke-width="2" stroke-linecap="round"/>
<path d="M117.868 103.197C140.913 92.4211 154.326 86.5458 174.061 69.9638C172.035 98.933 195.975 128.479 211.607 135.147C194.139 137.022 179.078 144.021 169.931 164.44C161.86 182.457 159.895 192.849 138.54 214.892C117.185 236.935 108.008 234.096 89.224 256.039C73.7161 274.155 75.2314 296.757 73.3488 323.68C71.7674 346.295 102.932 386.114 121.689 395.368C123.063 395.895 124.436 396.421 125.809 396.947C124.525 396.62 123.144 396.086 121.689 395.368C87.8815 382.397 54.039 368.694 31.1053 325.681C5.89438 278.398 20.1447 234.485 47.3393 173.21C53.1903 160.027 72.4207 124.45 117.868 103.197Z" fill="#673211" stroke="black" stroke-width="3"/>
<path d="M83.6241 159.024C97.9859 139.589 158.363 108.506 175.405 86.1616C175.701 96.0924 191.562 120.738 200.417 126.932C178.291 133.436 147.533 165.971 137.67 191.914C132.269 206.119 59.9564 274.432 46.3632 257.997C34.9449 244.191 62.5383 187.559 83.6241 159.024Z" fill="#9D6D42" stroke="black" stroke-width="3"/>
<path d="M153.666 188.177C166.932 177.009 168.209 166.152 168.03 161.7C162.537 157.291 151.305 154.054 140.737 160.916C130.88 167.317 120.206 170.492 114.798 176.712C111.711 176.666 107.16 177.48 106.987 178.572C106.715 180.298 109.03 181.384 109.892 182.57C108.756 184.16 105.668 184.113 105.894 185.476C106.197 187.305 111.16 188.521 112.522 188.295C113.612 188.113 109.524 190.474 109.25 192.2C109.478 193.563 113.429 193.748 115.29 193.157C118.461 192.152 111.769 195.667 114.696 199.698C115.059 200.198 119.647 199.155 119.92 197.429C120.194 195.704 120.374 200.156 122.099 200.429C124.028 200.733 125.097 198.25 126.233 196.66C134.498 197.527 141.37 198.53 153.666 188.177Z" fill="#673211" stroke="black" stroke-width="3"/>
<path d="M102.05 90.3229C102.076 107.667 109.569 115.624 113.093 118.348C120.001 116.973 129.7 110.446 131.238 97.9383C132.673 86.2704 137.103 76.0507 135.815 67.9089C137.835 65.5726 140.138 61.5617 139.412 60.7279C138.265 59.409 135.946 60.4855 134.483 60.3832C133.996 58.4911 136.017 56.1548 134.828 55.4521C133.232 54.5092 129.111 57.53 128.409 58.7196C127.847 59.6714 128.667 55.0216 127.521 53.7025C126.331 53 123.65 55.9092 122.905 57.7153C121.637 60.7915 123.247 53.4043 118.279 53.0562C117.662 53.013 115.512 57.1986 116.657 58.5174C117.803 59.8363 114.278 57.1123 112.96 58.2589C111.486 59.5416 112.702 61.957 113.189 63.8492C107.212 69.6251 102.026 74.2464 102.05 90.3229Z" fill="#673211" stroke="black" stroke-width="3"/>
<path d="M130.928 66.9476C131.065 64.9985 123.13 63.3579 118.032 65.4264C117.859 67.8919 118.833 71.6762 123.763 72.0209C128.692 72.3656 130.756 69.4131 130.928 66.9476Z" fill="#E6B78E" stroke="black" stroke-width="3"/>
<path d="M97.9901 267.574C91.69 283.285 92.292 293.693 78.5635 304.378C77.2766 303.045 76.4445 300.669 76.4948 297.787C76.5559 294.293 74.2477 303.866 72.021 303.827C69.4008 303.781 69.9135 299.464 69.952 297.236C69.9822 295.489 65.5642 304.254 64.6048 303.261C63.7467 302.372 62.9344 298.862 63.4092 296.685C63.8841 294.509 58.7134 300.888 57.6635 300.518C55.0585 299.598 57.4862 294.202 56.8969 294.387C55.5792 294.801 53.3573 296.947 52.0551 296.487C49.6943 281.589 59.0707 269.955 72.1395 247.023C82.6035 228.662 84.043 215.769 89.8193 210.189C93.8429 206.303 117.4 206.738 119.362 219.444C122.44 239.381 105.298 249.349 97.9901 267.574Z" fill="#673211" stroke="black" stroke-width="3"/>
<path d="M23.7293 218.632C15.7469 233.558 7.38942 239.787 8.03136 257.175C9.87944 257.304 12.2335 256.414 14.4081 254.524C17.0452 252.23 11.1976 260.152 12.6586 261.834C14.3778 263.812 17.3547 260.644 19.0358 259.183C20.3548 258.036 16.4815 267.056 17.8593 267.152C19.0916 267.239 22.3018 265.605 23.6634 263.842C25.0251 262.079 23.463 270.142 24.4217 270.708C26.8001 272.113 29.3726 266.784 29.6096 267.355C30.1396 268.631 29.9245 271.712 31.1133 272.415C44.0401 264.648 46.9235 249.984 56.0846 225.23C63.4198 205.41 72.3684 196.019 72.9288 188.007C73.3191 182.425 57.8434 164.654 46.8517 171.318C29.6045 181.774 32.989 201.317 23.7293 218.632Z" fill="#673211" stroke="black" stroke-width="3"/>
</svg>
